<svg xmlns="http://www.w3.org/2000/svg" xmlns:svg="http://www.w3.org/2000/svg" id="svg3970" width="340.423" height="330" version="1.1" viewBox="0 0 90.07 87.313"><metadata id="metadata3967"/><g id="layer1" transform="translate(-7.1255851,-173.21277)"><rect id="rect2004" width="87.313" height="87.313" x="-94.438" y="173.213" rx="13.229" ry="13.229" transform="scale(-1,1)" style="opacity:1;fill:#edfdff;fill-opacity:1;stroke:none;stroke-width:1.74624979;stroke-linecap:butt;stroke-linejoin:miter;stroke-miterlimit:4;stroke-dasharray:none;stroke-dashoffset:0;stroke-opacity:1"/><path style="opacity:1;fill:#c3f1ff;fill-opacity:1;stroke:none;stroke-width:6.59999943;stroke-linecap:butt;stroke-linejoin:miter;stroke-miterlimit:4;stroke-dasharray:none;stroke-dashoffset:0;stroke-opacity:1" id="rect2006" d="M 0 96.25 L 0 151.25 L 77.5 151.25 C 80.27 151.25 82.5 149.02 82.5 146.25 L 82.5 101.25 C 82.5 98.48 80.27 96.25 77.5 96.25 L 0 96.25 z" clip-path="none" transform="matrix(0.26458332,0,0,0.26458332,7.1255851,173.21277)"/><path style="opacity:1;fill:#c3f1ff;fill-opacity:1;stroke:none;stroke-width:6.5999999;stroke-linecap:butt;stroke-linejoin:miter;stroke-miterlimit:4;stroke-dasharray:none;stroke-dashoffset:0;stroke-opacity:1" id="rect2008" d="M 50 0 C 22.299998 0 1.4210855e-14 22.299998 0 50 L 0 54.5 L 78 54.5 C 80.77 54.5 83 52.27 83 49.5 L 83 4.5 C 83 2.503655 81.832377 0.80274423 80.148438 0 L 50 0 z" clip-path="none" transform="matrix(0.26458332,0,0,0.26458332,7.1255851,173.21277)"/><rect style="opacity:1;fill:#71caff;fill-opacity:1;stroke:none;stroke-width:1.74624979;stroke-linecap:butt;stroke-linejoin:miter;stroke-miterlimit:4;stroke-dasharray:none;stroke-dashoffset:0;stroke-opacity:1" id="rect2010" width="57.196" height="14.552" x="40" y="198.745" rx="1.323" ry="1.323"/><path style="opacity:1;fill:#c3f1ff;fill-opacity:1;stroke:none;stroke-width:6.59999943;stroke-linecap:butt;stroke-linejoin:miter;stroke-miterlimit:4;stroke-dasharray:none;stroke-dashoffset:0;stroke-opacity:1" id="rect2012" d="M 0 193 L 0 248 L 77.5 248 C 80.27 248 82.5 245.77 82.5 243 L 82.5 198 C 82.5 195.23 80.27 193 77.5 193 L 0 193 z" clip-path="none" transform="matrix(0.26458332,0,0,0.26458332,7.1255851,173.21277)"/><path style="fill:#87e34c;fill-opacity:1;stroke:none;stroke-width:1.00000012px;stroke-linecap:butt;stroke-linejoin:miter;stroke-opacity:1" id="path2020" d="M 0 219.61328 L 0 284.29688 C 0 309.61626 27.643317 330 61.980469 330 L 268.01953 330 C 300.54576 330 327.04905 311.70603 329.75586 288.25586 L 330 248.5 C 256.7254 233.20714 83.19117 220.5514 0 219.61328 z" clip-path="none" transform="matrix(0.26458332,0,0,0.26458332,7.1255851,173.21277)"/><path style="opacity:1;fill:#c3f1ff;fill-opacity:1;stroke:none;stroke-width:6.59999943;stroke-linecap:butt;stroke-linejoin:miter;stroke-miterlimit:4;stroke-dasharray:none;stroke-dashoffset:0;stroke-opacity:1" id="rect2014" d="M 129.25 193.5 C 126.48 193.5 124.25 195.73 124.25 198.5 L 124.25 243.5 C 124.25 246.27 126.48 248.5 129.25 248.5 L 330 248.5 L 330 193.5 L 129.25 193.5 z" clip-path="none" transform="matrix(0.26458332,0,0,0.26458332,7.1255851,173.21277)"/><path style="opacity:1;fill:#c3f1ff;fill-opacity:1;stroke:none;stroke-width:6.5999999;stroke-linecap:butt;stroke-linejoin:miter;stroke-miterlimit:4;stroke-dasharray:none;stroke-dashoffset:0;stroke-opacity:1" id="rect2016" d="M 127.10156 0 C 125.41762 0.80274423 124.25 2.503655 124.25 4.5 L 124.25 49.5 C 124.25 52.27 126.48 54.5 129.25 54.5 L 330 54.5 L 330 50 C 330 22.299998 307.7 0 280 0 L 127.10156 0 z" clip-path="none" transform="matrix(0.26458332,0,0,0.26458332,7.1255851,173.21277)"/><path style="opacity:1;fill:#59b81c;fill-opacity:1;stroke:none;stroke-width:6.59999943;stroke-linecap:butt;stroke-linejoin:miter;stroke-miterlimit:4;stroke-dasharray:none;stroke-dashoffset:0;stroke-opacity:1" id="rect1135" d="M 129.25 290.5 C 126.48 290.5 124.25 292.73 124.25 295.5 L 124.25 330 L 280 330 C 304.09518 330 324.09664 313.12363 328.89648 290.5 L 129.25 290.5 z" clip-path="none" transform="matrix(0.26458332,0,0,0.26458332,7.1255851,173.21277)"/><path style="opacity:1;fill:#59b81c;fill-opacity:1;stroke:none;stroke-width:6.59999943;stroke-linecap:butt;stroke-linejoin:miter;stroke-miterlimit:4;stroke-dasharray:none;stroke-dashoffset:0;stroke-opacity:1" id="rect1139" d="M 0.94921875 289.75 C 5.4614968 312.74994 25.639123 330 50 330 L 82.5 330 L 82.5 294.75 C 82.5 291.98 80.27 289.75 77.5 289.75 L 0.94921875 289.75 z" clip-path="none" transform="matrix(0.26458332,0,0,0.26458332,7.1255851,173.21277)"/><path style="opacity:1;fill:#59b81c;fill-opacity:1;stroke:none;stroke-width:1.74624979;stroke-linecap:butt;stroke-linejoin:miter;stroke-miterlimit:4;stroke-dasharray:none;stroke-dashoffset:0;stroke-opacity:1" id="path1264" d="m 7.1257773,231.31877 v 7.51065 H 27.630987 c 0.732896,0 1.322917,-0.59002 1.322917,-1.32292 v -5.36505 C 20.620295,231.67818 13.007809,231.3851 7.1257773,231.31877 Z" clip-path="none"/><path style="fill:#59b81c;fill-opacity:1;stroke:none;stroke-width:.26458335px;stroke-linecap:butt;stroke-linejoin:miter;stroke-opacity:1" id="path1163" d="m 40.000259,232.82824 v 4.81056 c 0,0.73289 0.59002,1.32291 1.322916,1.32291 h 53.115108 c -11.982795,-2.50088 -34.095004,-4.73297 -54.438024,-6.13347 z" clip-path="none"/></g></svg>