<svg xmlns="http://www.w3.org/2000/svg" width="266.667" height="266.667" preserveAspectRatio="xMidYMid meet" version="1.0" viewBox="0 0 200 200"><metadata>Created by potrace 1.11, written by Peter Selinger 2001-2013</metadata><g fill="#000" stroke="none"><path d="M145 1993 c-55 -15 -120 -80 -136 -138 -6 -23 -9 -80 -7 -132 6 -106 24 -143 93 -191 l40 -27 860 0 c976 0 905 -6 968 84 31 45 32 48 32 161 0 103 -2 119 -24 153 -13 22 -45 50 -75 67 l-51 30 -840 -1 c-462 -1 -849 -3 -860 -6z" transform="translate(0.000000,200.000000) scale(0.100000,-0.100000)"/><path d="M125 1235 c-39 -17 -86 -62 -105 -99 -11 -21 -15 -62 -15 -140 0 -102 2 -114 25 -146 35 -51 70 -79 112 -90 23 -7 224 -10 540 -8 483 3 505 4 542 23 21 12 53 40 70 64 30 41 31 48 33 149 3 137 -20 189 -107 242 -35 21 -1048 26 -1095 5z" transform="translate(0.000000,200.000000) scale(0.100000,-0.100000)"/><path d="M132 489 c-45 -13 -109 -82 -122 -131 -12 -44 -11 -177 1 -224 11 -39 70 -100 115 -119 46 -19 370 -20 415 -1 52 22 107 81 120 128 6 24 9 82 7 133 -3 78 -8 96 -32 132 -53 80 -75 87 -286 90 -102 1 -200 -2 -218 -8z" transform="translate(0.000000,200.000000) scale(0.100000,-0.100000)"/></g></svg>